# xmcd
#
# Track frame offsets:
#	150
#	10596
#	22650
#	35980
#	49516
#	59599
#	69874
#	85837
#	99404
#	119900
#	132135
#	145908
#	154316
#	164970
#	179571
#	195181
#	206808
#	220563
#	232717
#	260572
#	271100
#	283288
#	294760
#	316105
#
# Disc length: 4380 seconds
#
# Revision: 1
# Processed by: cddbd v1.5.1PL2 Copyright (c) Steve Scherf et al.
# Submitted via: audiograbber 1.83.01
#
DISCID=58111a18
DTITLE=Jaso - Variety
DYEAR=1900
DGENRE=Oldies
TTITLE0=Credence Clearwater Revival - Fortunate Son
TTITLE1=Buffalo Springfield - For what it's worth
TTITLE2=The Four Tops - Reach out, I'll be there
TTITLE3=Jim Croce - Bad, Bad Leroy Brown
TTITLE4=Buddy Holly - Oh Boy!
TTITLE5=Beatles - 'Till There Was You
TTITLE6=Aretha Franklin - I Say A Little Prayer
TTITLE7=Monkeys - Sleepy Jean
TTITLE8=                    - As Time Goes By
TTITLE9=Joe Cocker - You Are So Beautiful
TTITLE10=Elvis Presley - Can't Help Falling In Love
TTITLE11=Jimmy Durante - Make Someone Happy
TTITLE12=Louis Armstrong - What A Wonderful World
TTITLE13=               - What the World Needs Now
TTITLE14=Peter, Paul and Mary - Leaving on a Jet Plane
TTITLE15=The Temptations - Ain't too Proud to Beg
TTITLE16=Scott McKenzie - Are you going to San Francisco
TTITLE17=The Temptations - My Girl
TTITLE18=Bob Dylan - How Does it Feel
TTITLE19=Credence Clearwater Revival - Bad Moon Rising
TTITLE20=The Mamas and the Papas - All the leaves are Brown
TTITLE21=Jim Croce - I'll have to say I love you in a song
TTITLE22=Lynyrd Skynyrd - Sweet Home Alabama
TTITLE23=Otis Redding - Sittin on the Dock of the Bay
EXTD=
EXTT0=
EXTT1=
EXTT2=
EXTT3=
EXTT4=
EXTT5=
EXTT6=
EXTT7=
EXTT8=
EXTT9=
EXTT10=
EXTT11=
EXTT12=
EXTT13=
EXTT14=
EXTT15=
EXTT16=
EXTT17=
EXTT18=
EXTT19=
EXTT20=
EXTT21=
EXTT22=
EXTT23=
PLAYORDER=
